<?xml version="1.0" encoding="UTF-8" standalone="no"?>
<svg
   xmlns:dc="http://purl.org/dc/elements/1.1/"
   xmlns:cc="http://creativecommons.org/ns#"
   xmlns:rdf="http://www.w3.org/1999/02/22-rdf-syntax-ns#"
   xmlns:svg="http://www.w3.org/2000/svg"
   xmlns="http://www.w3.org/2000/svg"
   xmlns:sodipodi="http://sodipodi.sourceforge.net/DTD/sodipodi-0.dtd"
   xmlns:inkscape="http://www.inkscape.org/namespaces/inkscape"
   version="1.1"
   width="1000.2621"
   height="343.31537"
   id="svg858"
   viewBox="0 0 1000.2622 343.31537"
   sodipodi:docname="Blibli.com (2015).svg"
   inkscape:version="1.0.2 (e86c870879, 2021-01-15, custom)">
  <metadata
     id="metadata864">
    <rdf:RDF>
      <cc:Work
         rdf:about="">
        <dc:format>image/svg+xml</dc:format>
        <dc:type
           rdf:resource="http://purl.org/dc/dcmitype/StillImage" />
        <dc:title></dc:title>
      </cc:Work>
    </rdf:RDF>
  </metadata>
  <defs
     id="defs862" />
  <sodipodi:namedview
     pagecolor="#ffffff"
     bordercolor="#666666"
     borderopacity="1"
     objecttolerance="10"
     gridtolerance="10"
     guidetolerance="10"
     inkscape:pageopacity="0"
     inkscape:pageshadow="2"
     inkscape:window-width="1366"
     inkscape:window-height="715"
     id="namedview860"
     showgrid="false"
     inkscape:zoom="0.3417486"
     inkscape:cx="1419.2421"
     inkscape:cy="393.00715"
     inkscape:window-x="-8"
     inkscape:window-y="-8"
     inkscape:window-maximized="1"
     inkscape:current-layer="svg858" />
  <g
     id="Layer1000"
     transform="matrix(4.1960503,0,0,4.1960503,-94.584728,-423.05796)">
    <g
       id="Layer1001">
      <g
         id="Layer1002">
        <path
           d="m 26.2219,131.2194 45.9525,-2.5432 c 1.5306,-0.0847 3.0902,1.2845 2.7871,2.7871 -3.2931,16.3241 -2.7109,32.4388 0.8709,48.3913 0.3358,1.4956 -1.2542,2.787 -2.787,2.787 H 24.8283 c -1.5329,0 -2.6177,-1.8015 -2.1948,-3.2748 3.662,-12.7582 4.6184,-27.0971 1.2193,-45.4299 -0.2794,-1.5072 0.8385,-2.6328 2.3691,-2.7175 z"
           style="fill:#268acb;fill-rule:evenodd"
           id="path835" />
        <path
           d="m 37.4048,137.9086 c 1.116,0 2.0207,0.9047 2.0207,2.0207 0,1.116 -0.9047,2.0206 -2.0207,2.0206 -1.116,0 -2.0207,-0.9046 -2.0207,-2.0206 0,-1.116 0.9047,-2.0207 2.0207,-2.0207 z m 20.8231,8.9352 c -0.0084,-1.0733 0.8548,-1.9502 1.9281,-1.9586 1.0733,-0.008 1.9502,0.8548 1.9586,1.9281 l 6e-4,0.0691 -1e-4,0.0152 h 1e-4 l 2e-4,0.0692 h 0.0076 c 0,3.7132 -1.5052,7.0752 -3.9389,9.5089 -2.4337,2.4336 -5.7956,3.9389 -9.5089,3.9389 -3.7132,0 -7.0752,-1.5053 -9.5089,-3.9389 -2.4336,-2.4337 -3.9389,-5.7957 -3.9389,-9.5089 h 0.0076 l 2e-4,-0.0673 c 0,-1.0733 0.8701,-1.9434 1.9434,-1.9434 1.0733,0 1.9433,0.8701 1.9433,1.9434 l -2e-4,0.0673 h 0.0077 c 0,2.6362 1.0684,5.0228 2.7957,6.7501 1.7273,1.7273 4.1139,2.7957 6.7501,2.7957 2.6362,0 5.0228,-1.0684 6.7501,-2.7957 1.7274,-1.7273 2.7958,-4.1139 2.7958,-6.7501 h 0.0076 l -2e-4,-0.0514 v -0.002 z m 1.7177,-8.9352 c 1.116,0 2.0207,0.9047 2.0207,2.0207 0,1.116 -0.9047,2.0206 -2.0207,2.0206 -1.116,0 -2.0206,-0.9046 -2.0206,-2.0206 0,-1.116 0.9046,-2.0207 2.0206,-2.0207 z"
           style="fill:#ffffff;fill-rule:evenodd"
           id="path837" />
      </g>
      <path
         d="m 45.1129,128.1366 -2.0903,-17.5589 0.975,-1.0104 c 0.0442,0.0925 0.0907,0.1746 0.1399,0.2441 0.6957,-0.3462 2.4981,-1.3638 3.7502,-2.0771 0.413,0.4396 0.9997,0.7144 1.6506,0.7144 0.6895,0 1.3069,-0.3083 1.7223,-0.7943 l 4.3605,0.9443 1.1978,0.7598 c 0,0 1.7114,14.6136 2.1587,18.5958 l -13.7575,0.7614 z m 1.6346,-23.7332 -1.4952,-2.5354 c 0,0 0.6446,-0.2786 1.0104,-0.1218 0.3657,0.1568 0.8012,0.3832 1.0277,0.2787 0.2265,-0.1045 1.0451,-0.9581 1.3935,-1.08 0.3485,-0.122 0.4529,-0.122 0.4529,-0.122 0,0 1.0801,0.331 1.3414,0.5923 0.2613,0.2613 0.4007,0.3833 0.6619,0.2787 0.2613,-0.1045 1.0104,-0.7142 1.3065,-0.749 0.2961,-0.0348 0.4877,-0.0174 0.4877,-0.0174 l -0.8074,3.0949 c -0.3471,0.1963 -0.6843,0.388 -0.9872,0.5606 -0.4098,-0.4099 -0.976,-0.6634 -1.6014,-0.6634 -0.6576,0 -1.2496,0.2804 -1.6633,0.728 z"
         style="fill:#8fc43f;fill-rule:evenodd"
         id="path840" />
      <path
         d="m 43.4059,103.6798 c -0.2003,0.4398 -0.0843,4.9779 0.7316,6.1316 0.6957,-0.3462 2.4981,-1.3638 3.7502,-2.0771 0.413,0.4396 0.9997,0.7144 1.6506,0.7144 0.6895,0 1.3069,-0.3083 1.7223,-0.7943 l 4.4101,0.9551 c 0.2003,-0.4399 0.0843,-4.978 -0.7316,-6.1317 -0.7049,0.3508 -2.5458,1.3907 -3.7994,2.1052 -0.4098,-0.4099 -0.976,-0.6634 -1.6014,-0.6634 -0.6576,0 -1.2496,0.2804 -1.6633,0.728 z"
         style="fill:#1eac4b;fill-rule:evenodd"
         id="path842" />
      <path
         d="m 54.349,114.3444 6.1273,1.3737 0.2074,0.0465 v 0 l -0.2074,-0.0465 -2.7588,12.3059 -7.8433,0.4341 2.947,-13.1454 c 0.1538,-0.6864 0.8414,-1.1222 1.5278,-0.9683 z m 13.9165,3.1199 5.6566,1.2681 c 0.6864,0.1539 1.1221,0.8414 0.9682,1.5278 l -1.5466,6.899 -7.8433,0.4341 2.2623,-10.0913 c 0.1712,-0.008 0.3389,-0.0211 0.5028,-0.0377 z"
         style="fill:#df3286;fill-rule:evenodd"
         id="path844" />
      <path
         d="m 60.4763,115.7181 0.2074,0.0465 c -1.0421,-0.7761 -3.7244,-2.5487 -3.0748,-4.0277 0.8076,-1.8382 2.8628,-1.6691 4.053,-0.5325 1.1902,1.1366 1.8525,3.0827 1.9249,4.2523 0,0 0.7656,-0.2389 1.3394,0.0436 0.5738,0.2824 0.6781,0.3337 0.6781,0.3337 0,0 2.8762,-3.6713 4.8179,-2.9424 1.9417,0.7289 2.4844,2.2596 1.9295,2.9262 -0.5177,0.6219 -2.2104,1.5679 -4.589,1.6842 l -2.2623,10.0913 -7.7829,0.4307 z m 1.6187,-0.7526 c 0,0 -0.6396,-2.4857 -1.5133,-2.9157 -0.8738,-0.4301 -1.4123,-0.2577 -1.6626,0.2509 -0.2503,0.5086 1.4276,1.6747 3.1759,2.6648 z m 8.4732,-0.5601 c 0,0 0.6271,0.5031 0.389,0.8881 -0.2381,0.385 -2.4,0.8276 -2.8614,0.8435 -0.4614,0.0159 -1.0142,-0.0131 -1.0142,-0.0131 0,0 1.3315,-1.224 2.0505,-1.6315 0.719,-0.4076 1.1748,-0.2804 1.4361,-0.087 z"
         style="fill:#ef9720;fill-rule:evenodd"
         id="path846" />
      <path
         d="m 24.7582,121.7435 7.3153,-1.7657 0.2476,-0.0597 h -1e-4 l -0.2475,0.0597 2.2546,9.3407 -9.1954,0.509 -1.5048,-6.2343 c -0.1979,-0.8195 0.3108,-1.6519 1.1303,-1.8497 z m 16.6147,-4.0103 6.7533,-1.6301 c 0.8195,-0.1978 1.6518,0.3109 1.8497,1.1304 l 2.6722,11.0711 -9.1954,0.5089 -2.6004,-10.7736 c 0.1797,-0.0997 0.3531,-0.2021 0.5206,-0.3067 z"
         style="fill:#ef9720;fill-rule:evenodd"
         id="path848" />
      <path
         d="m 32.0735,119.9778 0.2476,-0.0597 c -1.5312,-0.283 -5.3535,-0.7695 -5.4376,-2.7036 -0.1045,-2.4038 2.1948,-3.3097 4.0761,-2.7174 1.8813,0.5922 3.6233,2.3342 4.3201,3.5535 0,0 0.6967,-0.6619 1.4632,-0.6619 0.7665,0 0.9058,0 0.9058,0 0,0 1.1497,-5.4697 3.6232,-5.7136 2.4736,-0.2438 3.8672,1.1149 3.6233,2.1252 -0.2275,0.9426 -1.547,2.8556 -4.0429,4.2396 l 2.6004,10.7736 -9.1246,0.505 z m 1.3422,-1.6659 c 0,0 -2.0032,-2.3342 -3.1703,-2.3342 -1.1671,0 -1.6548,0.4703 -1.6548,1.1497 0,0.6793 2.4213,1.0452 4.8251,1.1845 z m 8.8143,-5.0864 c 0,0 0.9406,0.2091 0.8883,0.749 -0.0522,0.54 -2.1426,2.1601 -2.6303,2.4214 -0.4877,0.2613 -1.0974,0.5226 -1.0974,0.5226 0,0 0.7839,-2.0207 1.3413,-2.8394 0.5574,-0.8188 1.1148,-0.9233 1.4981,-0.8536 z"
         style="fill:#e41f29;fill-rule:evenodd"
         id="path850" />
    </g>
    <path
       d="m 102.7987,128.3677 c 9.1587,0 16.5833,7.4246 16.5833,16.5833 0,9.1587 -7.4246,16.5833 -16.5833,16.5833 -9.1587,0 -16.5833,-7.4246 -16.5833,-16.5833 v -25.7111 c 2.1763,-2.3709 4.7728,-3.8305 7.7852,-3.9717 0,9.4065 0,18.813 0,28.2195 0,6.9049 2.698,12.7325 8.0214,12.7325 6.2238,0 9.8859,-5.0454 9.8859,-11.2692 0,-6.2238 -5.0454,-11.2692 -11.2692,-11.2692 -1.1204,0 -2.2024,0.1638 -3.2238,0.4684 0,0 1.4171,-3.6839 4.1183,-5.7348 0.4177,-0.0316 0.8397,-0.0477 1.2655,-0.0477 z m 115.4956,-17.5052 c 1.6707,0 3.1916,0.6403 4.3315,1.6885 l -1.6133,1.6133 c -0.7257,-0.6369 -1.6767,-1.0233 -2.7182,-1.0233 -2.2768,0 -4.1225,1.8457 -4.1225,4.1225 0,2.2768 1.8457,4.1225 4.1225,4.1225 1.0415,0 1.9925,-0.3864 2.7182,-1.0233 l 1.6133,1.6133 c -1.1399,1.0483 -2.6608,1.6885 -4.3315,1.6885 -3.5352,0 -6.401,-2.8658 -6.401,-6.401 0,-3.5352 2.8658,-6.401 6.401,-6.401 z m 20.9971,1.5299 c 0.7364,-0.8023 1.5978,-1.3336 2.583,-1.4877 v 2.0978 c 0.4979,-0.5992 1.9291,-2.0889 3.8497,-2.0889 2.1911,0 3.5013,1.0565 3.9781,2.3252 0.1111,-0.1543 1.7164,-2.3252 4.0349,-2.3252 3.3334,0 4.4396,2.1964 4.4396,5.1184 v 0.003 5.6818 c -0.8383,0.9132 -1.8384,1.4754 -2.9988,1.5298 v -7.3335 c 0,0 -0.1169,-2.4736 -2.1724,-2.4736 -3.1294,0 -2.6853,2.4658 -2.8418,3.0499 v 5.2274 c -0.8383,0.9132 -1.8384,1.4754 -2.9987,1.5298 v -7.3335 c 0,0 -0.117,-2.4736 -2.1725,-2.4736 -2.0555,0 -2.7024,1.4109 -2.7024,2.6652 v 5.6121 c -0.8383,0.9132 -1.8384,1.4754 -2.9987,1.5298 z m -8.3157,-1.5299 c 3.5352,0 6.4011,2.8658 6.4011,6.401 0,3.5352 -2.8659,6.401 -6.4011,6.401 -3.5352,0 -6.401,-2.8658 -6.401,-6.401 0,-3.5352 2.8658,-6.401 6.401,-6.401 z m 0,2.2785 c 2.2768,0 4.1225,1.8457 4.1225,4.1225 0,2.2768 -1.8457,4.1225 -4.1225,4.1225 -2.2768,0 -4.1225,-1.8457 -4.1225,-4.1225 0,-2.2768 1.8457,-4.1225 4.1225,-4.1225 z m -64.3522,15.2267 c 9.1586,0 16.5833,7.4246 16.5833,16.5833 0,9.1587 -7.4247,16.5833 -16.5833,16.5833 -9.1587,0 -16.5834,-7.4246 -16.5834,-16.5833 v -25.7111 c 2.1764,-2.3709 4.7729,-3.8305 7.7853,-3.9717 0,9.4065 0,18.813 0,28.2195 0,6.9049 2.698,12.7325 8.0214,12.7325 6.2237,0 9.8859,-5.0454 9.8859,-11.2692 0,-6.2238 -5.0454,-11.2692 -11.2692,-11.2692 -1.1204,0 -2.2024,0.1638 -3.2238,0.4684 0,0 1.4171,-3.6839 4.1183,-5.7348 0.4177,-0.0316 0.8397,-0.0477 1.2655,-0.0477 z m 34.6995,3.9019 c 2.1764,-2.3709 4.7728,-3.8304 7.7853,-3.9717 0,17.2801 0,11.9846 0,29.2647 -2.1764,2.3709 -4.7729,3.8305 -7.7853,3.9717 0,-17.2801 0,-11.9846 0,-29.2647 z m 3.8926,-16.7575 c 2.155,0 3.902,1.747 3.902,3.902 0,2.155 -1.747,3.902 -3.902,3.902 -2.155,0 -3.9019,-1.747 -3.9019,-3.902 0,-2.155 1.7469,-3.902 3.9019,-3.902 z m -16.8527,-5.8181 c 2.1764,-2.3709 4.7729,-3.8304 7.7853,-3.9716 0,17.2801 0,34.5601 0,51.8402 -2.1764,2.3709 -4.7728,3.8305 -7.7853,3.9717 0,-17.2801 0,-34.5602 0,-51.8403 z m -50.8647,22.5756 c 2.1764,-2.3709 4.7728,-3.8304 7.7853,-3.9717 0,17.2801 0,11.9846 0,29.2647 -2.1764,2.3709 -4.7729,3.8305 -7.7853,3.9717 0,-17.2801 0,-11.9846 0,-29.2647 z m 3.8926,-16.7575 c 2.155,0 3.902,1.747 3.902,3.902 0,2.155 -1.747,3.902 -3.902,3.902 -2.155,0 -3.9019,-1.747 -3.9019,-3.902 0,-2.155 1.7469,-3.902 3.9019,-3.902 z m -16.8527,-5.8181 c 2.1764,-2.3709 4.7729,-3.8304 7.7853,-3.9716 0,17.2801 0,34.5601 0,51.8402 -2.1764,2.3709 -4.7728,3.8305 -7.7853,3.9717 0,-17.2801 0,-34.5602 0,-51.8403 z"
       style="fill:#268acb;fill-rule:evenodd"
       id="path853" />
    <path
       d="m 86.2154,182.2377 h 4.0229 c 2.745,0 3.8924,-1.22 3.8924,-2.9919 0,-1.1764 -0.7117,-2.0768 -1.9462,-2.3528 0.944,-0.2905 1.4379,-1.1183 1.4379,-2.0478 0,-1.6557 -1.1765,-2.774 -3.6164,-2.774 h -3.7906 z m 5.5915,-3.0645 c 0,0.8714 -0.5664,1.3071 -1.7573,1.3071 h -1.5541 v -2.6142 h 1.5541 c 1.1909,0 1.7573,0.4502 1.7573,1.3071 z m -0.3776,-4.1973 c 0,0.7697 -0.5374,1.1909 -1.5686,1.1909 h -1.3652 v -2.3382 h 1.3652 c 1.0312,0 1.5686,0.3485 1.5686,1.1473 z m 4.4509,-2.9047 v 10.1665 h 2.3238 v -10.1665 z m 4.1313,5.0832 c 0,3.1952 2.1205,5.2575 5.0978,5.2575 1.8154,0 3.2678,-0.6971 4.1828,-1.859 v -3.9213 h -4.2554 v 1.6702 h 2.0478 v 1.3942 c -0.3776,0.5084 -1.1183,0.7843 -1.9461,0.7843 -1.5395,0 -2.7886,-1.1473 -2.7886,-3.3259 0,-2.1785 1.22,-3.3258 2.6288,-3.3258 1.0892,0 1.8445,0.4792 2.3528,1.3506 l 1.9316,-0.944 c -0.8859,-1.5105 -2.3963,-2.3383 -4.3715,-2.3383 -2.8612,0 -4.88,2.0769 -4.88,5.2575 z m 88.4651,5.0833 h 4.023 c 2.745,0 3.8923,-1.22 3.8923,-2.9919 0,-1.1764 -0.7116,-2.0768 -1.9461,-2.3528 0.944,-0.2905 1.4378,-1.1183 1.4378,-2.0478 0,-1.6557 -1.1764,-2.774 -3.6163,-2.774 h -3.7907 z m 5.5916,-3.0645 c 0,0.8714 -0.5665,1.3071 -1.7574,1.3071 h -1.554 v -2.6142 h 1.554 c 1.1909,0 1.7574,0.4502 1.7574,1.3071 z m -0.3776,-4.1973 c 0,0.7697 -0.5375,1.1909 -1.5686,1.1909 h -1.3652 v -2.3382 h 1.3652 c 1.0312,0 1.5686,0.3485 1.5686,1.1473 z m 4.4509,-2.9047 v 10.1665 h 2.3237 v -10.1665 z m 4.1313,5.0832 c 0,3.1952 2.1205,5.2575 5.0978,5.2575 1.8154,0 3.2677,-0.6971 4.1827,-1.859 v -3.9213 h -4.2554 v 1.6702 h 2.0479 v 1.3942 c -0.3777,0.5084 -1.1183,0.7843 -1.9462,0.7843 -1.5395,0 -2.7885,-1.1473 -2.7885,-3.3259 0,-2.1785 1.22,-3.3258 2.6288,-3.3258 1.0892,0 1.8445,0.4792 2.3528,1.3506 l 1.9316,-0.944 c -0.886,-1.5105 -2.3964,-2.3383 -4.3716,-2.3383 -2.8611,0 -4.8799,2.0769 -4.8799,5.2575 z m -87.092,0 c 0,3.0935 1.8445,5.2575 4.7347,5.2575 1.8445,0 3.2242,-0.8714 3.9649,-2.0623 l -1.0457,-0.6536 c -0.7697,1.0748 -1.6702,1.5541 -2.8756,1.5541 -1.9752,0 -3.4712,-1.4379 -3.4712,-4.0957 0,-2.6578 1.496,-4.0956 3.4712,-4.0956 1.2054,0 2.1059,0.4793 2.8756,1.554 l 1.0457,-0.6535 c -0.7407,-1.191 -2.1204,-2.0624 -3.9649,-2.0624 -2.8902,0 -4.7347,2.164 -4.7347,5.2575 z m 10.5218,5.0833 h 1.278 v -4.8364 h 5.3156 v 4.8364 h 1.2781 v -10.1665 h -1.2781 v 4.1973 h -5.3156 v -4.1973 h -1.278 z m 18.8437,-5.0833 c 0,-2.9482 -1.6557,-5.2575 -4.5314,-5.2575 -2.8902,0 -4.5458,2.3093 -4.5458,5.2575 0,2.9483 1.6556,5.2575 4.5458,5.2575 2.8757,0 4.5314,-2.3092 4.5314,-5.2575 z m -7.7701,0 c 0,-2.5125 1.2635,-4.0956 3.2387,-4.0956 1.9607,0 3.2242,1.5831 3.2242,4.0956 0,2.5126 -1.2635,4.0957 -3.2242,4.0957 -1.9752,0 -3.2387,-1.5831 -3.2387,-4.0957 z m 9.7374,-5.0832 v 10.1665 h 1.2781 v -10.1665 z m 3.2455,5.0832 c 0,3.0935 1.8445,5.2575 4.7346,5.2575 1.8445,0 3.2243,-0.8714 3.9649,-2.0623 l -1.0456,-0.6536 c -0.7698,1.0748 -1.6702,1.5541 -2.8757,1.5541 -1.9752,0 -3.4711,-1.4379 -3.4711,-4.0957 0,-2.6578 1.4959,-4.0956 3.4711,-4.0956 1.2055,0 2.1059,0.4793 2.8757,1.554 l 1.0456,-0.6535 c -0.7406,-1.191 -2.1204,-2.0624 -3.9649,-2.0624 -2.8901,0 -4.7346,2.164 -4.7346,5.2575 z m 10.5217,5.0833 h 6.463 v -1.1329 h -5.1849 v -3.5437 h 4.5458 v -1.1329 h -4.5458 v -3.2242 h 5.0542 v -1.1328 h -6.3323 z m 11.7417,-0.9876 c -1.1909,0 -2.2221,-0.4357 -3.1371,-1.4088 l -0.9731,0.8133 c 1.0893,1.1619 2.4545,1.7573 4.0957,1.7573 2.1785,0 3.4711,-1.1764 3.4711,-2.8466 0,-1.8009 -1.1183,-2.5706 -3.6309,-3.2387 -1.525,-0.4067 -2.164,-1.0747 -2.164,-1.8154 0,-0.8569 0.6245,-1.4524 1.9171,-1.4524 0.9731,0 1.8009,0.4212 2.5562,1.1764 l 0.9294,-0.7697 c -0.9004,-1.0022 -2.1494,-1.5686 -3.5146,-1.5686 -2.0043,0 -3.1952,1.0893 -3.1952,2.6143 0,1.2199 0.6826,2.3237 3.1226,2.9482 1.917,0.4938 2.6723,0.9876 2.6723,2.1786 0,0.9149 -0.8279,1.6121 -2.1495,1.6121 z m 45.9279,0.9876 h 3.3114 c 3.0644,0 4.8218,-1.9026 4.8218,-5.0833 0,-3.1661 -1.7574,-5.0832 -4.8218,-5.0832 h -3.3114 z m 1.2781,-1.1329 v -7.9008 h 1.9316 c 2.2947,0 3.6164,1.4379 3.6164,3.9504 0,2.5271 -1.3217,3.9504 -3.6164,3.9504 z m 8.7498,1.1329 h 6.463 v -1.1329 h -5.1849 v -3.5437 h 4.5458 v -1.1329 h -4.5458 v -3.2242 h 5.0542 v -1.1328 h -6.3323 z m 11.3351,-10.1665 -3.9214,10.1665 h 1.4088 l 0.9585,-2.6288 h 4.5023 l 0.9586,2.6288 h 1.4087 l -3.9213,-10.1665 z m 0.6971,1.3361 1.8445,5.0688 h -3.689 z m 6.1501,8.8304 h 6.3178 v -1.1329 h -5.0397 v -9.0336 h -1.2781 z m 11.3061,-0.9876 c -1.191,0 -2.2222,-0.4357 -3.1371,-1.4088 l -0.9731,0.8133 c 1.0892,1.1619 2.4544,1.7573 4.0956,1.7573 2.1785,0 3.4711,-1.1764 3.4711,-2.8466 0,-1.8009 -1.1185,-2.57 -3.6308,-3.2387 -1.5252,-0.406 -2.1641,-1.0747 -2.1641,-1.8154 0,-0.8569 0.6245,-1.4524 1.9171,-1.4524 0.9731,0 1.8009,0.4212 2.5562,1.1764 l 0.9295,-0.7697 c -0.9005,-1.0022 -2.1495,-1.5686 -3.5147,-1.5686 -2.0042,0 -3.1952,1.0893 -3.1952,2.6143 0,1.2199 0.6831,2.3221 3.1226,2.9482 1.9175,0.4922 2.6723,0.9876 2.6723,2.1786 0,0.9149 -0.8278,1.6121 -2.1494,1.6121 z"
       style="fill:#268acb;fill-rule:evenodd"
       id="path855" />
  </g>
</svg>
